<svg aria-hidden="true" style="position: absolute; width: 0; height: 0; overflow: hidden;" version="1.1" xmlns="http://www.w3.org/2000/svg" xmlns:xlink="http://www.w3.org/1999/xlink">
<defs>
<symbol id="icon-bell" viewBox="0 0 18 20">
<path d="M7 3L7.42747 3.90403C7.77705 3.73873 8 3.38669 8 3H7ZM9 1V0V1ZM11 3H10C10 3.38669 10.2229 3.73873 10.5725 3.90403L11 3ZM15 9H16C16 8.98436 15.9996 8.96873 15.9989 8.95311L15 9ZM15 12H14C14 12.0402 14.0024 12.0803 14.0072 12.1202L15 12ZM17 15V16C17.4542 16 17.8513 15.694 17.967 15.2548C18.0827 14.8156 17.8879 14.3536 17.4928 14.1298L17 15ZM1 15L0.507247 14.1298C0.112053 14.3536 -0.0827104 14.8156 0.0330023 15.2548C0.148715 15.694 0.545842 16 1 16V15ZM3 12L3.99275 12.1202C3.99758 12.0803 4 12.0402 4 12H3ZM3 9L2.0011 8.95311C2.00037 8.96873 2 8.98436 2 9H3ZM7 15C7 14.4477 6.55228 14 6 14C5.44772 14 5 14.4477 5 15H7ZM9 19V20V19ZM13 15C13 14.4477 12.5523 14 12 14C11.4477 14 11 14.4477 11 15H13ZM8 3C8 2.73478 8.10536 2.48043 8.29289 2.29289L6.87868 0.87868C6.31607 1.44129 6 2.20435 6 3H8ZM8.29289 2.29289C8.48043 2.10536 8.73478 2 9 2V0C8.20435 0 7.44129 0.31607 6.87868 0.87868L8.29289 2.29289ZM9 2C9.26522 2 9.51957 2.10536 9.70711 2.29289L11.1213 0.87868C10.5587 0.31607 9.79565 0 9 0V2ZM9.70711 2.29289C9.89464 2.48043 10 2.73478 10 3H12C12 2.20435 11.6839 1.44129 11.1213 0.87868L9.70711 2.29289ZM10.5725 3.90403C11.5569 4.36948 12.396 5.09402 13 6L14.6641 4.8906C13.8588 3.68263 12.7399 2.71657 11.4275 2.09597L10.5725 3.90403ZM13 6C13.604 6.90598 13.95 7.95923 14.0011 9.04689L15.9989 8.95311C15.9308 7.50291 15.4694 6.09857 14.6641 4.8906L13 6ZM14 9V12H16V9H14ZM14.0072 12.1202C14.1013 12.8973 14.3765 13.6415 14.8108 14.2928L16.4749 13.1834C16.2143 12.7926 16.0492 12.3461 15.9928 11.8798L14.0072 12.1202ZM14.8108 14.2928C15.245 14.9442 15.8261 15.4844 16.5072 15.8702L17.4928 14.1298C17.084 13.8984 16.7354 13.5742 16.4749 13.1834L14.8108 14.2928ZM17 14H1V16H17V14ZM1.49275 15.8702C2.17393 15.4844 2.75502 14.9442 3.18924 14.2928L1.52514 13.1834C1.2646 13.5742 0.91595 13.8984 0.507247 14.1298L1.49275 15.8702ZM3.18924 14.2928C3.62346 13.6415 3.89868 12.8973 3.99275 12.1202L2.00725 11.8798C1.95081 12.3461 1.78567 12.7926 1.52514 13.1834L3.18924 14.2928ZM4 12V9H2V12H4ZM3.9989 9.04689C4.04995 7.95923 4.39602 6.90598 5 6L3.3359 4.8906C2.53059 6.09857 2.06917 7.50291 2.0011 8.95311L3.9989 9.04689ZM5 6C5.60398 5.09402 6.44312 4.36948 7.42747 3.90403L6.57253 2.09597C5.26006 2.71657 4.14121 3.68263 3.3359 4.8906L5 6ZM5 15V16H7V15H5ZM5 16C5 17.0609 5.42143 18.0783 6.17157 18.8284L7.58579 17.4142C7.21071 17.0391 7 16.5304 7 16H5ZM6.17157 18.8284C6.92172 19.5786 7.93913 20 9 20V18C8.46957 18 7.96086 17.7893 7.58579 17.4142L6.17157 18.8284ZM9 20C10.0609 20 11.0783 19.5786 11.8284 18.8284L10.4142 17.4142C10.0391 17.7893 9.53043 18 9 18V20ZM11.8284 18.8284C12.5786 18.0783 13 17.0609 13 16H11C11 16.5304 10.7893 17.0391 10.4142 17.4142L11.8284 18.8284ZM13 16V15H11V16H13Z" ></path>
</symbol>

<symbol id="icon-file" viewBox="0 0 16 20">
<path d="M10 1L10.7071 0.292893C10.5196 0.105357 10.2652 0 10 0V1ZM15 6H16C16 5.73478 15.8946 5.48043 15.7071 5.29289L15 6ZM1 17H0H1ZM3 1V0V1ZM5 4C4.44772 4 4 4.44772 4 5C4 5.55228 4.44772 6 5 6V4ZM6 6C6.55228 6 7 5.55228 7 5C7 4.44772 6.55228 4 6 4V6ZM5 10C4.44772 10 4 10.4477 4 11C4 11.5523 4.44772 12 5 12V10ZM11 12C11.5523 12 12 11.5523 12 11C12 10.4477 11.5523 10 11 10V12ZM9 14C8.44772 14 8 14.4477 8 15C8 15.5523 8.44772 16 9 16V14ZM11 16C11.5523 16 12 15.5523 12 15C12 14.4477 11.5523 14 11 14V16ZM9 1V5H11V1H9ZM9 5C9 5.53043 9.21071 6.03914 9.58579 6.41421L11 5V5H9ZM9.58579 6.41421C9.96086 6.78929 10.4696 7 11 7V5V5L9.58579 6.41421ZM11 7H15V5H11V7ZM13 18H3V20H13V18ZM3 18C2.73478 18 2.48043 17.8946 2.29289 17.7071L0.87868 19.1213C1.44129 19.6839 2.20435 20 3 20V18ZM2.29289 17.7071C2.10536 17.5196 2 17.2652 2 17H0C0 17.7957 0.31607 18.5587 0.87868 19.1213L2.29289 17.7071ZM2 17V3H0V17H2ZM2 3C2 2.73478 2.10536 2.48043 2.29289 2.29289L0.87868 0.87868C0.31607 1.44129 0 2.20435 0 3H2ZM2.29289 2.29289C2.48043 2.10536 2.73478 2 3 2V0C2.20435 0 1.44129 0.31607 0.87868 0.87868L2.29289 2.29289ZM3 2H10V0H3V2ZM9.29289 1.70711L14.2929 6.70711L15.7071 5.29289L10.7071 0.292893L9.29289 1.70711ZM14 6V17H16V6H14ZM14 17C14 17.2652 13.8946 17.5196 13.7071 17.7071L15.1213 19.1213C15.6839 18.5587 16 17.7957 16 17H14ZM13.7071 17.7071C13.5196 17.8946 13.2652 18 13 18V20C13.7957 20 14.5587 19.6839 15.1213 19.1213L13.7071 17.7071ZM5 6H6V4H5V6ZM5 12H11V10H5V12ZM9 16H11V14H9V16Z" ></path>
</symbol>

<symbol id="icon-messages" viewBox="0 0 20 20" >
<path d="M19 12L18.2929 12.7071C18.5789 12.9931 19.009 13.0787 19.3827 12.9239C19.7564 12.7691 20 12.4045 20 12H19ZM16 9L16.7071 8.29289C16.5196 8.10536 16.2652 8 16 8V9ZM9 1V0V1ZM18 1V0V1ZM13 13C13 12.4477 12.5523 12 12 12C11.4477 12 11 12.4477 11 13H13ZM4 16V15C3.73478 15 3.48043 15.1054 3.29289 15.2929L4 16ZM1 19H0C0 19.4045 0.243642 19.7691 0.617317 19.9239C0.990991 20.0787 1.42111 19.9931 1.70711 19.7071L1 19ZM4 9C4.55228 9 5 8.55228 5 8C5 7.44772 4.55228 7 4 7V9ZM19.7071 11.2929L16.7071 8.29289L15.2929 9.70711L18.2929 12.7071L19.7071 11.2929ZM16 8H9V10H16V8ZM9 8L7.58579 9.41421C7.96086 9.78929 8.46957 10 9 10V8ZM9 8H7C7 8.53043 7.21071 9.03914 7.58579 9.41421L9 8ZM9 8V2H7V8H9ZM9 2V2L7.58579 0.585786C7.21071 0.960859 7 1.46957 7 2H9ZM9 2V2V0C8.46957 0 7.96086 0.210714 7.58579 0.585786L9 2ZM9 2H18V0H9V2ZM18 2V2L19.4142 0.585786C19.0391 0.210713 18.5304 0 18 0V2ZM18 2V2H20C20 1.46957 19.7893 0.960861 19.4142 0.585786L18 2ZM18 2V12H20V2H18ZM11 13V15H13V13H11ZM11 15V15L12.4142 16.4142C12.7893 16.0391 13 15.5304 13 15H11ZM11 15V15V17C11.5304 17 12.0391 16.7893 12.4142 16.4142L11 15ZM11 15H4V17H11V15ZM3.29289 15.2929L0.292893 18.2929L1.70711 19.7071L4.70711 16.7071L3.29289 15.2929ZM2 19V9H0V19H2ZM2 9H2L0.585786 7.58579C0.210714 7.96086 0 8.46957 0 9H2ZM2 9H2V7C1.46957 7 0.960859 7.21071 0.585786 7.58579L2 9ZM2 9H4V7H2V9Z" ></path>
</symbol>


<symbol id="icon-user" viewBox="0 0 14 20">
<path d="M0 19C0 19.5523 0.447715 20 1 20C1.55228 20 2 19.5523 2 19H0ZM5 13V12V13ZM9 13V12V13ZM12 19C12 19.5523 12.4477 20 13 20C13.5523 20 14 19.5523 14 19H12ZM10 5C10 6.65685 8.65685 8 7 8V10C9.76142 10 12 7.76142 12 5H10ZM7 8C5.34315 8 4 6.65685 4 5H2C2 7.76142 4.23858 10 7 10V8ZM4 5C4 3.34315 5.34315 2 7 2V0C4.23858 0 2 2.23858 2 5H4ZM7 2C8.65685 2 10 3.34315 10 5H12C12 2.23858 9.76142 0 7 0V2ZM2 19V17H0V19H2ZM2 17C2 16.2044 2.31607 15.4413 2.87868 14.8787L1.46447 13.4645C0.526784 14.4021 0 15.6739 0 17H2ZM2.87868 14.8787C3.44129 14.3161 4.20435 14 5 14V12C3.67392 12 2.40215 12.5268 1.46447 13.4645L2.87868 14.8787ZM5 14H9V12H5V14ZM9 14C9.79565 14 10.5587 14.3161 11.1213 14.8787L12.5355 13.4645C11.5979 12.5268 10.3261 12 9 12V14ZM11.1213 14.8787C11.6839 15.4413 12 16.2044 12 17H14C14 15.6739 13.4732 14.4021 12.5355 13.4645L11.1213 14.8787ZM12 17V19H14V17H12Z" ></path>
</symbol>


<symbol id="icon-calendar" viewBox="0 0 18 20">
<path d="M14 1C14 0.447715 13.5523 0 13 0C12.4477 0 12 0.447715 12 1H14ZM12 5C12 5.55228 12.4477 6 13 6C13.5523 6 14 5.55228 14 5H12ZM6 1C6 0.447715 5.55228 0 5 0C4.44772 0 4 0.447715 4 1H6ZM4 5C4 5.55228 4.44772 6 5 6C5.55228 6 6 5.55228 6 5H4ZM1 8C0.447715 8 0 8.44772 0 9C0 9.55229 0.447715 10 1 10V8ZM17 10C17.5523 10 18 9.55229 18 9C18 8.44772 17.5523 8 17 8V10ZM3 4H15V2H3V4ZM15 4C15.5523 4 16 4.44772 16 5H18C18 3.34315 16.6569 2 15 2V4ZM16 5V17H18V5H16ZM16 17C16 17.5523 15.5523 18 15 18V20C16.6569 20 18 18.6569 18 17H16ZM15 18H3V20H15V18ZM3 18C2.44772 18 2 17.5523 2 17H0C0 18.6569 1.34315 20 3 20V18ZM2 17V5H0V17H2ZM2 5C2 4.44772 2.44772 4 3 4V2C1.34315 2 0 3.34315 0 5H2ZM12 1V5H14V1H12ZM4 1V5H6V1H4ZM1 10H17V8H1V10Z" ></path>
</symbol>

<symbol id="icon-calendar-plus" viewBox="0 0 18 20">
<path d="M14 1C14 0.447715 13.5523 0 13 0C12.4477 0 12 0.447715 12 1H14ZM12 5C12 5.55228 12.4477 6 13 6C13.5523 6 14 5.55228 14 5H12ZM6 1C6 0.447715 5.55228 0 5 0C4.44772 0 4 0.447715 4 1H6ZM4 5C4 5.55228 4.44772 6 5 6C5.55228 6 6 5.55228 6 5H4ZM1 8C0.447715 8 0 8.44772 0 9C0 9.55229 0.447715 10 1 10V8ZM17 10C17.5523 10 18 9.55229 18 9C18 8.44772 17.5523 8 17 8V10ZM7 13C6.44772 13 6 13.4477 6 14C6 14.5523 6.44772 15 7 15V13ZM11 15C11.5523 15 12 14.5523 12 14C12 13.4477 11.5523 13 11 13V15ZM10 12C10 11.4477 9.55229 11 9 11C8.44772 11 8 11.4477 8 12H10ZM8 16C8 16.5523 8.44772 17 9 17C9.55229 17 10 16.5523 10 16H8ZM3 4H15V2H3V4ZM15 4C15.5523 4 16 4.44772 16 5H18C18 3.34315 16.6569 2 15 2V4ZM16 5V17H18V5H16ZM16 17C16 17.5523 15.5523 18 15 18V20C16.6569 20 18 18.6569 18 17H16ZM15 18H3V20H15V18ZM3 18C2.44772 18 2 17.5523 2 17H0C0 18.6569 1.34315 20 3 20V18ZM2 17V5H0V17H2ZM2 5C2 4.44772 2.44772 4 3 4V2C1.34315 2 0 3.34315 0 5H2ZM12 1V5H14V1H12ZM4 1V5H6V1H4ZM1 10H17V8H1V10ZM7 15H11V13H7V15ZM8 12V16H10V12H8Z" ></path>
</symbol>

<symbol id="icon-music" viewBox="0 0 18 18">
<path d="M7 1V0C6.44772 0 6 0.447715 6 1L7 1ZM17 1H18C18 0.447715 17.5523 0 17 0V1ZM7 4C6.44772 4 6 4.44772 6 5C6 5.55228 6.44772 6 7 6V4ZM17 6C17.5523 6 18 5.55228 18 5C18 4.44772 17.5523 4 17 4V6ZM6 14C6 15.1046 5.10457 16 4 16V18C6.20914 18 8 16.2091 8 14H6ZM4 16C2.89543 16 2 15.1046 2 14H0C0 16.2091 1.79086 18 4 18V16ZM2 14C2 12.8954 2.89543 12 4 12V10C1.79086 10 0 11.7909 0 14H2ZM4 12C5.10457 12 6 12.8954 6 14H8C8 11.7909 6.20914 10 4 10V12ZM16 14C16 15.1046 15.1046 16 14 16V18C16.2091 18 18 16.2091 18 14H16ZM14 16C12.8954 16 12 15.1046 12 14H10C10 16.2091 11.7909 18 14 18V16ZM12 14C12 12.8954 12.8954 12 14 12V10C11.7909 10 10 11.7909 10 14H12ZM14 12C15.1046 12 16 12.8954 16 14H18C18 11.7909 16.2091 10 14 10V12ZM8 14V1H6V14H8ZM7 2H17V0H7V2ZM16 1V14H18V1H16ZM7 6H17V4H7V6Z" ></path>
</symbol>

<symbol id="icon-camera-plus" viewBox="0 0 20 19">
<path d="M3 5V4V5ZM5 5V6V5ZM8 2V3V2ZM10 3C10.5523 3 11 2.55228 11 2C11 1.44772 10.5523 1 10 1V3ZM20 9C20 8.44772 19.5523 8 19 8C18.4477 8 18 8.44772 18 9H20ZM1 16H0H1ZM13 3C12.4477 3 12 3.44772 12 4C12 4.55228 12.4477 5 13 5V3ZM19 5C19.5523 5 20 4.55228 20 4C20 3.44772 19.5523 3 19 3V5ZM17 1C17 0.447715 16.5523 0 16 0C15.4477 0 15 0.447715 15 1H17ZM15 7C15 7.55228 15.4477 8 16 8C16.5523 8 17 7.55228 17 7H15ZM12 11C12 12.1046 11.1046 13 10 13V15C12.2091 15 14 13.2091 14 11H12ZM10 13C8.89543 13 8 12.1046 8 11H6C6 13.2091 7.79086 15 10 15V13ZM8 11C8 9.89543 8.89543 9 10 9V7C7.79086 7 6 8.79086 6 11H8ZM10 9C11.1046 9 12 9.89543 12 11H14C14 8.79086 12.2091 7 10 7V9ZM3 6H5V4H3V6ZM5 6C5.79565 6 6.55871 5.68393 7.12132 5.12132L5.70711 3.70711C5.51957 3.89464 5.26522 4 5 4V6ZM7.12132 5.12132C7.68393 4.55871 8 3.79565 8 3H6C6 3.26522 5.89464 3.51957 5.70711 3.70711L7.12132 5.12132ZM8 3V3L6.58579 1.58579C6.21071 1.96086 6 2.46957 6 3H8ZM8 3V3V1C7.46957 1 6.96086 1.21071 6.58579 1.58579L8 3ZM8 3H10V1H8V3ZM18 9V16H20V9H18ZM18 16C18 16.2652 17.8946 16.5196 17.7071 16.7071L19.1213 18.1213C19.6839 17.5587 20 16.7957 20 16H18ZM17.7071 16.7071C17.5196 16.8946 17.2652 17 17 17V19C17.7957 19 18.5587 18.6839 19.1213 18.1213L17.7071 16.7071ZM17 17H3V19H17V17ZM3 17C2.73478 17 2.48043 16.8946 2.29289 16.7071L0.87868 18.1213C1.44129 18.6839 2.20435 19 3 19V17ZM2.29289 16.7071C2.10536 16.5196 2 16.2652 2 16H0C0 16.7956 0.31607 17.5587 0.87868 18.1213L2.29289 16.7071ZM2 16V7H0V16H2ZM2 7C2 6.73478 2.10536 6.48043 2.29289 6.29289L0.87868 4.87868C0.31607 5.44129 0 6.20435 0 7H2ZM2.29289 6.29289C2.48043 6.10536 2.73478 6 3 6V4C2.20435 4 1.44129 4.31607 0.87868 4.87868L2.29289 6.29289ZM13 5H19V3H13V5ZM15 1V7H17V1H15Z" ></path>
</symbol>

<symbol id="icon-search" viewBox="0 0 20 20">
<path d="M18.2929 19.7071C18.6834 20.0976 19.3166 20.0976 19.7071 19.7071C20.0976 19.3166 20.0976 18.6834 19.7071 18.2929L18.2929 19.7071ZM13.7071 12.2929C13.3166 11.9024 12.6834 11.9024 12.2929 12.2929C11.9024 12.6834 11.9024 13.3166 12.2929 13.7071L13.7071 12.2929ZM14 8C14 11.3137 11.3137 14 8 14V16C12.4183 16 16 12.4183 16 8H14ZM8 14C4.68629 14 2 11.3137 2 8H0C0 12.4183 3.58172 16 8 16V14ZM2 8C2 4.68629 4.68629 2 8 2V0C3.58172 0 0 3.58172 0 8H2ZM8 2C11.3137 2 14 4.68629 14 8H16C16 3.58172 12.4183 0 8 0V2ZM19.7071 18.2929L13.7071 12.2929L12.2929 13.7071L18.2929 19.7071L19.7071 18.2929Z" ></path>
</symbol>

<symbol id="icon-clock" viewBox="0 0 20 20">
<path d="M11 5C11 4.44772 10.5523 4 10 4C9.44771 4 9 4.44772 9 5H11ZM10 10H9C9 10.2652 9.10536 10.5196 9.29289 10.7071L10 10ZM12.2929 13.7071C12.6834 14.0976 13.3166 14.0976 13.7071 13.7071C14.0976 13.3166 14.0976 12.6834 13.7071 12.2929L12.2929 13.7071ZM18 10C18 14.4183 14.4183 18 10 18V20C15.5228 20 20 15.5228 20 10H18ZM10 18C5.58172 18 2 14.4183 2 10H0C0 15.5228 4.47715 20 10 20V18ZM2 10C2 5.58172 5.58172 2 10 2V0C4.47715 0 0 4.47715 0 10H2ZM10 2C14.4183 2 18 5.58172 18 10H20C20 4.47715 15.5228 0 10 0V2ZM9 5V10H11V5H9ZM9.29289 10.7071L12.2929 13.7071L13.7071 12.2929L10.7071 9.29289L9.29289 10.7071Z" ></path>
</symbol>

<symbol id="icon-map-pin" viewBox="0 0 20 21">
<path d="M14.657 14.657L15.3641 15.3641L15.3641 15.364L14.657 14.657ZM10.414 18.9L11.1208 19.6074L11.1211 19.6071L10.414 18.9ZM7.587 18.9L6.87998 19.6071L6.88025 19.6074L7.587 18.9ZM3.343 14.657L2.63588 15.364L2.63598 15.3641L3.343 14.657ZM11 9C11 10.1046 10.1046 11 9 11V13C11.2091 13 13 11.2091 13 9H11ZM9 11C7.89543 11 7 10.1046 7 9H5C5 11.2091 6.79086 13 9 13V11ZM7 9C7 7.89543 7.89543 7 9 7V5C6.79086 5 5 6.79086 5 9H7ZM9 7C10.1046 7 11 7.89543 11 9H13C13 6.79086 11.2091 5 9 5V7ZM13.9499 13.9498L9.7069 18.1928L11.1211 19.6071L15.3641 15.3641L13.9499 13.9498ZM9.70725 18.1925C9.51975 18.3798 9.26554 18.485 9.0005 18.485V20.485C9.79563 20.485 10.5582 20.1694 11.1208 19.6074L9.70725 18.1925ZM9.0005 18.485C8.73546 18.485 8.48126 18.3798 8.29375 18.1925L6.88025 19.6074C7.44278 20.1694 8.20538 20.485 9.0005 20.485V18.485ZM8.29403 18.1928L4.05003 13.9498L2.63598 15.3641L6.87998 19.6071L8.29403 18.1928ZM4.05013 13.9499C3.0712 12.9709 2.40455 11.7236 2.13448 10.3657L0.172902 10.7559C0.520132 12.5017 1.37725 14.1053 2.63588 15.364L4.05013 13.9499ZM2.13448 10.3657C1.86441 9.00789 2.00306 7.60044 2.53288 6.32138L0.685132 5.55599C0.00392985 7.20049 -0.174327 9.01007 0.172902 10.7559L2.13448 10.3657ZM2.53288 6.32138C3.06271 5.04232 3.95991 3.94909 5.11105 3.17993L3.99992 1.51699C2.51989 2.5059 1.36633 3.91148 0.685132 5.55599L2.53288 6.32138ZM5.11105 3.17993C6.26219 2.41078 7.61555 2.00024 9 2.00024V0.000244141C7.21999 0.000244141 5.47995 0.528073 3.99992 1.51699L5.11105 3.17993ZM9 2.00024C10.3845 2.00024 11.7378 2.41078 12.889 3.17993L14.0001 1.51699C12.5201 0.528073 10.78 0.000244141 9 0.000244141V2.00024ZM12.889 3.17993C14.0401 3.94909 14.9373 5.04232 15.4671 6.32138L17.3149 5.55599C16.6337 3.91148 15.4801 2.5059 14.0001 1.51699L12.889 3.17993ZM15.4671 6.32138C15.997 7.60044 16.1356 9.00789 15.8655 10.3657L17.8271 10.7559C18.1743 9.01007 17.9961 7.20049 17.3149 5.55599L15.4671 6.32138ZM15.8655 10.3657C15.5955 11.7236 14.9288 12.9709 13.9499 13.9499L15.3641 15.364C16.6228 14.1053 17.4799 12.5017 17.8271 10.7559L15.8655 10.3657Z"></path>
</symbol>

<symbol id="icon-dollar" viewBox="0 0 12 20">
<path d="M9.75686 6.3324C9.94044 6.85328 10.5115 7.12672 11.0324 6.94314C11.5533 6.75956 11.8267 6.18848 11.6431 5.6676L9.75686 6.3324ZM8 4L8.04314 3.00093C8.02877 3.00031 8.01438 3 8 3V4ZM4 10V11V10ZM8 16V17V16ZM4 16L3.95686 16.9991C3.97123 16.9997 3.98562 17 4 17V16ZM2.24314 13.6676C2.05956 13.1467 1.48848 12.8733 0.967598 13.0569C0.446717 13.2404 0.173282 13.8115 0.356863 14.3324L2.24314 13.6676ZM7 1C7 0.447715 6.55228 0 6 0C5.44772 0 5 0.447715 5 1H7ZM5 4C5 4.55228 5.44772 5 6 5C6.55228 5 7 4.55228 7 4H5ZM7 16C7 15.4477 6.55228 15 6 15C5.44772 15 5 15.4477 5 16H7ZM5 19C5 19.5523 5.44772 20 6 20C6.55228 20 7 19.5523 7 19H5ZM11.6431 5.6676C11.3777 4.91458 10.8931 4.25822 10.2515 3.78298L9.06104 5.39009C9.38183 5.62771 9.62417 5.95589 9.75686 6.3324L11.6431 5.6676ZM10.2515 3.78298C9.60992 3.30774 8.84081 3.03537 8.04314 3.00093L7.95686 4.99907C8.3557 5.01629 8.74026 5.15247 9.06104 5.39009L10.2515 3.78298ZM8 3H4V5H8V3ZM4 3C2.93913 3 1.92172 3.42143 1.17157 4.17157L2.58579 5.58579C2.96086 5.21071 3.46957 5 4 5V3ZM1.17157 4.17157C0.421428 4.92172 0 5.93913 0 7H2C2 6.46957 2.21071 5.96086 2.58579 5.58579L1.17157 4.17157ZM0 7C0 8.06087 0.421427 9.07828 1.17157 9.82843L2.58579 8.41421C2.21071 8.03914 2 7.53043 2 7H0ZM1.17157 9.82843C1.92172 10.5786 2.93913 11 4 11V9C3.46957 9 2.96086 8.78929 2.58579 8.41421L1.17157 9.82843ZM4 11H8V9H4V11ZM8 11C8.53043 11 9.03914 11.2107 9.41421 11.5858L10.8284 10.1716C10.0783 9.42143 9.06087 9 8 9V11ZM9.41421 11.5858C9.78929 11.9609 10 12.4696 10 13H12C12 11.9391 11.5786 10.9217 10.8284 10.1716L9.41421 11.5858ZM10 13C10 13.5304 9.78929 14.0391 9.41421 14.4142L10.8284 15.8284C11.5786 15.0783 12 14.0609 12 13H10ZM9.41421 14.4142C9.03914 14.7893 8.53043 15 8 15V17C9.06087 17 10.0783 16.5786 10.8284 15.8284L9.41421 14.4142ZM8 15H4V17H8V15ZM4.04314 15.0009C3.6443 14.9837 3.25974 14.8475 2.93896 14.6099L1.7485 16.217C2.39007 16.6923 3.15919 16.9646 3.95686 16.9991L4.04314 15.0009ZM2.93896 14.6099C2.61817 14.3723 2.37584 14.0441 2.24314 13.6676L0.356863 14.3324C0.622258 15.0854 1.10693 15.7418 1.7485 16.217L2.93896 14.6099ZM5 1V4H7V1H5ZM5 16V19H7V16H5Z" ></path>
</symbol>

<symbol id="icon-arrow-right" viewBox="0 0 18 18">
<path d="M17 9L17.7071 9.70711C18.0976 9.31658 18.0976 8.68342 17.7071 8.29289L17 9ZM7 8C6.44772 8 6 8.44772 6 9C6 9.55229 6.44772 10 7 10V8ZM12.2929 12.2929C11.9024 12.6834 11.9024 13.3166 12.2929 13.7071C12.6834 14.0976 13.3166 14.0976 13.7071 13.7071L12.2929 12.2929ZM13.7071 4.29289C13.3166 3.90237 12.6834 3.90237 12.2929 4.29289C11.9024 4.68342 11.9024 5.31658 12.2929 5.70711L13.7071 4.29289ZM2 1C2 0.447715 1.55228 0 1 0C0.447715 0 0 0.447715 0 1H2ZM0 17C0 17.5523 0.447715 18 1 18C1.55228 18 2 17.5523 2 17H0ZM17 8H7V10H17V8ZM16.2929 8.29289L12.2929 12.2929L13.7071 13.7071L17.7071 9.70711L16.2929 8.29289ZM17.7071 8.29289L13.7071 4.29289L12.2929 5.70711L16.2929 9.70711L17.7071 8.29289ZM0 1V17H2V1H0Z" ></path>
</symbol>

<symbol id="icon-arrow-left" viewBox="0 0 18 18">
<path d="M1 9L0.292892 9.70711C-0.0976315 9.31658 -0.0976315 8.68342 0.292892 8.29289L1 9ZM11 8C11.5523 8 12 8.44772 12 9C12 9.55229 11.5523 10 11 10V8ZM5.70711 12.2929C6.09763 12.6834 6.09763 13.3166 5.70711 13.7071C5.31658 14.0976 4.68342 14.0976 4.29289 13.7071L5.70711 12.2929ZM4.29289 4.29289C4.68342 3.90237 5.31658 3.90237 5.70711 4.29289C6.09763 4.68342 6.09763 5.31658 5.70711 5.70711L4.29289 4.29289ZM16 1C16 0.447715 16.4477 0 17 0C17.5523 0 18 0.447715 18 1H16ZM18 17C18 17.5523 17.5523 18 17 18C16.4477 18 16 17.5523 16 17H18ZM1 8H11V10H1V8ZM1.70711 8.29289L5.70711 12.2929L4.29289 13.7071L0.292892 9.70711L1.70711 8.29289ZM0.292892 8.29289L4.29289 4.29289L5.70711 5.70711L1.70711 9.70711L0.292892 8.29289ZM18 1V17H16V1H18Z" ></path>
</symbol>

<symbol id="icon-arrow-check" viewBox="0 0 17 12">
<path d="M1.70711 5.29289C1.31658 4.90237 0.683417 4.90237 0.292893 5.29289C-0.0976311 5.68342 -0.0976311 6.31658 0.292893 6.70711L1.70711 5.29289ZM6 11L5.29289 11.7071C5.68342 12.0976 6.31658 12.0976 6.70711 11.7071L6 11ZM16.7071 1.70711C17.0976 1.31658 17.0976 0.683417 16.7071 0.292893C16.3166 -0.0976311 15.6834 -0.0976311 15.2929 0.292893L16.7071 1.70711ZM0.292893 6.70711L5.29289 11.7071L6.70711 10.2929L1.70711 5.29289L0.292893 6.70711ZM6.70711 11.7071L16.7071 1.70711L15.2929 0.292893L5.29289 10.2929L6.70711 11.7071Z" ></path>
</symbol>

<symbol id="icon-chevron-left" viewBox="0 0 8 14">
<path d="M7.70711 1.70711C8.09763 1.31658 8.09763 0.683417 7.70711 0.292893C7.31658 -0.0976311 6.68342 -0.0976311 6.29289 0.292893L7.70711 1.70711ZM1 7L0.292893 6.29289C-0.0976311 6.68342 -0.0976311 7.31658 0.292893 7.70711L1 7ZM6.29289 13.7071C6.68342 14.0976 7.31658 14.0976 7.70711 13.7071C8.09763 13.3166 8.09763 12.6834 7.70711 12.2929L6.29289 13.7071ZM6.29289 0.292893L0.292893 6.29289L1.70711 7.70711L7.70711 1.70711L6.29289 0.292893ZM0.292893 7.70711L6.29289 13.7071L7.70711 12.2929L1.70711 6.29289L0.292893 7.70711Z" ></path>
</symbol>

<symbol id="icon-chevron-right" viewBox="0 0 8 14">
<path d="M1.70711 0.292893C1.31658 -0.0976311 0.683417 -0.0976311 0.292893 0.292893C-0.0976311 0.683417 -0.0976311 1.31658 0.292893 1.70711L1.70711 0.292893ZM7 7L7.70711 7.70711C8.09763 7.31658 8.09763 6.68342 7.70711 6.29289L7 7ZM0.292893 12.2929C-0.0976311 12.6834 -0.0976311 13.3166 0.292893 13.7071C0.683417 14.0976 1.31658 14.0976 1.70711 13.7071L0.292893 12.2929ZM0.292893 1.70711L6.29289 7.70711L7.70711 6.29289L1.70711 0.292893L0.292893 1.70711ZM6.29289 6.29289L0.292893 12.2929L1.70711 13.7071L7.70711 7.70711L6.29289 6.29289Z" ></path>
</symbol>

<symbol id="icon-chevron-down" viewBox="0 0 14 8">
<path d="M1.70711 0.292893C1.31658 -0.0976311 0.683417 -0.0976311 0.292893 0.292893C-0.0976311 0.683417 -0.0976311 1.31658 0.292893 1.70711L1.70711 0.292893ZM7 7L6.29289 7.70711C6.68342 8.09763 7.31658 8.09763 7.70711 7.70711L7 7ZM13.7071 1.70711C14.0976 1.31658 14.0976 0.683417 13.7071 0.292893C13.3166 -0.0976311 12.6834 -0.0976311 12.2929 0.292893L13.7071 1.70711ZM0.292893 1.70711L6.29289 7.70711L7.70711 6.29289L1.70711 0.292893L0.292893 1.70711ZM7.70711 7.70711L13.7071 1.70711L12.2929 0.292893L6.29289 6.29289L7.70711 7.70711Z" ></path>
</symbol>

<symbol id="icon-chevron-up" viewBox="0 0 14 8">
<path d="M1.70711 7.70711C1.31658 8.09763 0.683417 8.09763 0.292893 7.70711C-0.0976311 7.31658 -0.0976311 6.68342 0.292893 6.29289L1.70711 7.70711ZM7 1L6.29289 0.292893C6.68342 -0.097631 7.31658 -0.097631 7.70711 0.292893L7 1ZM13.7071 6.29289C14.0976 6.68342 14.0976 7.31658 13.7071 7.70711C13.3166 8.09763 12.6834 8.09763 12.2929 7.70711L13.7071 6.29289ZM0.292893 6.29289L6.29289 0.292893L7.70711 1.70711L1.70711 7.70711L0.292893 6.29289ZM7.70711 0.292893L13.7071 6.29289L12.2929 7.70711L6.29289 1.70711L7.70711 0.292893Z" ></path>
</symbol>

<symbol id="icon-chevron-up" viewBox="0 0 14 8">
<path d="M1.70711 7.70711C1.31658 8.09763 0.683417 8.09763 0.292893 7.70711C-0.0976311 7.31658 -0.0976311 6.68342 0.292893 6.29289L1.70711 7.70711ZM7 1L6.29289 0.292893C6.68342 -0.097631 7.31658 -0.097631 7.70711 0.292893L7 1ZM13.7071 6.29289C14.0976 6.68342 14.0976 7.31658 13.7071 7.70711C13.3166 8.09763 12.6834 8.09763 12.2929 7.70711L13.7071 6.29289ZM0.292893 6.29289L6.29289 0.292893L7.70711 1.70711L1.70711 7.70711L0.292893 6.29289ZM7.70711 0.292893L13.7071 6.29289L12.2929 7.70711L6.29289 1.70711L7.70711 0.292893Z" ></path>
</symbol>


<symbol id="icon-G" viewBox="0 0 18 19">
<path d="M9.36291 11.76H14.1869C14.0429 12.272 13.8349 12.744 13.5629 13.176C13.2909 13.608 12.9549 13.992 12.5549 14.328C12.1709 14.664 11.7069 14.928 11.1629 15.12C10.6189 15.296 10.0029 15.384 9.31491 15.384C8.27491 15.384 7.33891 15.144 6.50691 14.664C5.69091 14.184 5.04291 13.512 4.56291 12.648C4.08291 11.768 3.84291 10.752 3.84291 9.6C3.84291 8.432 4.08291 7.424 4.56291 6.576C5.05891 5.728 5.72291 5.08 6.55491 4.632C7.38691 4.168 8.30691 3.936 9.31491 3.936C10.3869 3.936 11.2909 4.168 12.0269 4.632C12.7789 5.08 13.3629 5.672 13.7789 6.408L16.7069 4.704C16.1949 3.92 15.5789 3.248 14.8589 2.688C14.1549 2.112 13.3389 1.664 12.4109 1.344C11.4989 1.024 10.4669 0.863999 9.31491 0.863999C8.01891 0.863999 6.81891 1.072 5.71491 1.488C4.61091 1.904 3.65091 2.496 2.83491 3.264C2.01891 4.032 1.37891 4.96 0.914906 6.048C0.466906 7.12 0.242906 8.304 0.242906 9.6C0.242906 10.896 0.458906 12.088 0.890906 13.176C1.33891 14.264 1.96291 15.2 2.76291 15.984C3.57891 16.768 4.53091 17.376 5.61891 17.808C6.72291 18.24 7.92291 18.456 9.21891 18.456C10.5949 18.456 11.8189 18.208 12.8909 17.712C13.9629 17.216 14.8589 16.536 15.5789 15.672C16.3149 14.792 16.8509 13.784 17.1869 12.648C17.5389 11.512 17.6909 10.304 17.6429 9.024H9.36291V11.76Z" fill="#38f094" ></path>
<path d="M9.36291 11.76H8.36291V12.76H9.36291V11.76ZM14.1869 11.76L15.1496 12.0307L15.507 10.76H14.1869V11.76ZM13.5629 13.176L14.4091 13.7088L13.5629 13.176ZM12.5549 14.328L11.9117 13.5623L11.904 13.5688L11.8964 13.5754L12.5549 14.328ZM11.1629 15.12L11.4707 16.0714L11.4833 16.0674L11.4957 16.063L11.1629 15.12ZM6.50691 14.664L5.99987 15.526L6.00718 15.5302L6.50691 14.664ZM4.56291 12.648L3.68498 13.1269L3.68875 13.1336L4.56291 12.648ZM4.56291 6.576L3.69972 6.07112L3.69614 6.07723L3.69265 6.0834L4.56291 6.576ZM6.55491 4.632L7.02901 5.51247L7.03552 5.50896L7.04198 5.50536L6.55491 4.632ZM12.0269 4.632L11.4936 5.47792L11.5043 5.48465L11.5151 5.4911L12.0269 4.632ZM13.7789 6.408L12.9083 6.90006L13.4066 7.78166L14.2819 7.27229L13.7789 6.408ZM16.7069 4.704L17.2099 5.56829L18.1199 5.03872L17.5442 4.15721L16.7069 4.704ZM14.8589 2.688L14.2257 3.46196L14.2352 3.46977L14.245 3.47735L14.8589 2.688ZM12.4109 1.344L12.0798 2.28761L12.0849 2.28937L12.4109 1.344ZM5.71491 1.488L6.06751 2.42377H6.06752L5.71491 1.488ZM2.83491 3.264L3.52027 3.9922L3.52027 3.9922L2.83491 3.264ZM0.914906 6.048L-0.00496125 5.6557L-0.00776267 5.66241L0.914906 6.048ZM0.890906 13.176L-0.0385843 13.5451L-0.0337718 13.5567L0.890906 13.176ZM2.76291 15.984L2.06294 16.6982L2.07008 16.7051L2.76291 15.984ZM5.61891 17.808L5.24987 18.7374L5.25451 18.7392L5.61891 17.808ZM12.8909 17.712L12.471 16.8044L12.8909 17.712ZM15.5789 15.672L14.8118 15.0304L14.8107 15.0318L15.5789 15.672ZM17.1869 12.648L16.2316 12.352L16.228 12.3644L17.1869 12.648ZM17.6429 9.024L18.6422 8.98653L18.6061 8.024H17.6429V9.024ZM9.36291 9.024V8.024H8.36291V9.024H9.36291ZM9.36291 12.76H14.1869V10.76H9.36291V12.76ZM13.2243 11.4893C13.1052 11.9126 12.9354 12.2958 12.7167 12.6432L14.4091 13.7088C14.7344 13.1922 14.9806 12.6313 15.1496 12.0307L13.2243 11.4893ZM12.7167 12.6432C12.5012 12.9855 12.2342 13.2914 11.9117 13.5623L13.1981 15.0937C13.6756 14.6926 14.0806 14.2305 14.4091 13.7088L12.7167 12.6432ZM11.8964 13.5754C11.6196 13.8177 11.27 14.0218 10.8301 14.177L11.4957 16.063C12.1439 15.8342 12.7223 15.5103 13.2134 15.0806L11.8964 13.5754ZM10.8551 14.1686C10.4284 14.3066 9.91894 14.384 9.31491 14.384V16.384C10.0869 16.384 10.8095 16.2854 11.4707 16.0714L10.8551 14.1686ZM9.31491 14.384C8.43536 14.384 7.67421 14.183 7.00663 13.7978L6.00718 15.5302C7.0036 16.105 8.11445 16.384 9.31491 16.384V14.384ZM7.01393 13.8021C6.35859 13.4166 5.83442 12.8776 5.43706 12.1624L3.68875 13.1336C4.2514 14.1464 5.02322 14.9514 5.99989 15.5259L7.01393 13.8021ZM5.4408 12.1691C5.05218 11.4567 4.84291 10.6099 4.84291 9.6H2.84291C2.84291 10.8941 3.11363 12.0793 3.68501 13.1269L5.4408 12.1691ZM4.84291 9.6C4.84291 8.57036 5.05364 7.73909 5.43316 7.0686L3.69265 6.0834C3.11218 7.10891 2.84291 8.29364 2.84291 9.6H4.84291ZM5.42609 7.08088C5.83321 6.38485 6.36533 5.86984 7.02901 5.51247L6.08081 3.75153C5.08049 4.29016 4.2846 5.07115 3.69972 6.07112L5.42609 7.08088ZM7.04198 5.50536C7.71636 5.12926 8.46715 4.936 9.31491 4.936V2.936C8.14667 2.936 7.05745 3.20674 6.06784 3.75864L7.04198 5.50536ZM9.31491 4.936C10.242 4.936 10.9507 5.13565 11.4936 5.47792L12.5602 3.78607C11.6311 3.20035 10.5318 2.936 9.31491 2.936V4.936ZM11.5151 5.4911C12.1231 5.85333 12.5811 6.32103 12.9083 6.90006L14.6495 5.91594C14.1447 5.02297 13.4347 4.30666 12.5387 3.7729L11.5151 5.4911ZM14.2819 7.27229L17.2099 5.56829L16.2039 3.83971L13.2759 5.54371L14.2819 7.27229ZM17.5442 4.15721C16.9733 3.28305 16.2825 2.52839 15.4728 1.89865L14.245 3.47735C14.8753 3.9676 15.4165 4.55695 15.8696 5.25079L17.5442 4.15721ZM15.4921 1.91404C14.6897 1.25747 13.7678 0.754097 12.7369 0.398627L12.0849 2.28937C12.9101 2.5739 13.6201 2.96653 14.2257 3.46196L15.4921 1.91404ZM12.742 0.4004C11.7054 0.0366821 10.5586 -0.136001 9.31491 -0.136001V1.864C10.3752 1.864 11.2924 2.01132 12.0798 2.2876L12.742 0.4004ZM9.31491 -0.136001C7.91032 -0.136001 6.5896 0.0897679 5.3623 0.552229L6.06752 2.42377C7.04822 2.05423 8.12749 1.864 9.31491 1.864V-0.136001ZM5.3623 0.552228C4.1414 1.01228 3.0667 1.67259 2.14954 2.5358L3.52027 3.9922C4.23511 3.31941 5.08041 2.79572 6.06751 2.42377L5.3623 0.552228ZM2.14954 2.5358C1.22751 3.4036 0.510142 4.44794 -0.00493699 5.65571L1.83475 6.44029C2.24767 5.47206 2.81031 4.6604 3.52027 3.9922L2.14954 2.5358ZM-0.00776267 5.66241C-0.512391 6.86991 -0.757094 8.18691 -0.757094 9.6H1.24291C1.24291 8.42109 1.4462 7.37009 1.83758 6.43359L-0.00776267 5.66241ZM-0.757094 9.6C-0.757094 11.0088 -0.521889 12.3276 -0.0385101 13.545L1.82032 12.807C1.4397 11.8484 1.24291 10.7832 1.24291 9.6H-0.757094ZM-0.0337718 13.5567C0.463142 14.7635 1.16141 15.8147 2.06298 16.6982L3.46283 15.2698C2.76441 14.5853 2.21467 13.7645 1.81558 12.7952L-0.0337718 13.5567ZM2.07008 16.7051C2.98273 17.582 4.0457 18.2593 5.24987 18.7374L5.98794 16.8786C5.01611 16.4927 4.17508 15.954 3.45573 15.2629L2.07008 16.7051ZM5.25451 18.7392C6.485 19.2207 7.80987 19.456 9.21891 19.456V17.456C8.03594 17.456 6.96081 17.2593 5.98331 16.8768L5.25451 18.7392ZM9.21891 19.456C10.7162 19.456 12.0872 19.1857 13.3108 18.6196L12.471 16.8044C11.5506 17.2303 10.4737 17.456 9.21891 17.456V19.456ZM13.3108 18.6196C14.5104 18.0645 15.5275 17.2957 16.3471 16.3122L14.8107 15.0318C14.1903 15.7763 13.4154 16.3675 12.471 16.8044L13.3108 18.6196ZM16.346 16.3136C17.1726 15.3252 17.7723 14.1944 18.1458 12.9316L16.228 12.3644C15.9295 13.3736 15.4572 14.2588 14.8118 15.0304L16.346 16.3136ZM18.1421 12.944C18.53 11.6921 18.6941 10.3707 18.6422 8.98653L16.6436 9.06147C16.6877 10.2373 16.5478 11.3319 16.2317 12.352L18.1421 12.944ZM17.6429 8.024H9.36291V10.024H17.6429V8.024ZM8.36291 9.024V11.76H10.3629V9.024H8.36291Z" fill="#3A3C45"></path>
</symbol>

<symbol id="icon-star" viewBox="0 0 22 21">
<path d="M11 16.75L11.4662 15.8653C11.1747 15.7117 10.8263 15.7115 10.5346 15.8648L11 16.75ZM4.828 19.995L3.8424 19.8259C3.77804 20.2011 3.93226 20.5802 4.24022 20.804C4.54817 21.0277 4.95644 21.0572 5.29337 20.8801L4.828 19.995ZM6.007 13.122L6.99261 13.291C7.0483 12.9664 6.94055 12.6351 6.70452 12.4054L6.007 13.122ZM1.007 8.25495L0.863575 7.26529C0.486677 7.31992 0.173523 7.58388 0.0558972 7.94609C-0.0617287 8.30831 0.0365954 8.70589 0.309492 8.97153L1.007 8.25495ZM7.907 7.25495L8.05043 8.24461C8.37629 8.19739 8.65802 7.99278 8.80374 7.69751L7.907 7.25495ZM10.993 1.00195L11.8897 0.559392C11.7213 0.218054 11.3736 0.00195312 10.993 0.00195312C10.6124 0.00195312 10.2647 0.218054 10.0963 0.559392L10.993 1.00195ZM14.079 7.25495L13.1823 7.69751C13.328 7.99278 13.6097 8.19739 13.9356 8.24461L14.079 7.25495ZM20.979 8.25495L21.6765 8.97153C21.9494 8.70589 22.0477 8.30831 21.9301 7.94609C21.8125 7.58388 21.4993 7.31992 21.1224 7.26529L20.979 8.25495ZM15.979 13.122L15.2815 12.4054C15.0455 12.6351 14.9377 12.9664 14.9934 13.291L15.979 13.122ZM17.158 19.995L16.6918 20.8796C17.0287 21.0572 17.4372 21.0279 17.7454 20.8042C18.0536 20.5805 18.208 20.2012 18.1436 19.8259L17.158 19.995ZM10.5346 15.8648L4.36264 19.1098L5.29337 20.8801L11.4654 17.6351L10.5346 15.8648ZM5.81361 20.164L6.99261 13.291L5.0214 12.9529L3.8424 19.8259L5.81361 20.164ZM6.70452 12.4054L1.70452 7.53838L0.309492 8.97153L5.30949 13.8385L6.70452 12.4054ZM1.15043 9.24461L8.05043 8.24461L7.76357 6.26529L0.863575 7.26529L1.15043 9.24461ZM8.80374 7.69751L11.8897 1.44451L10.0963 0.559392L7.01026 6.81239L8.80374 7.69751ZM10.0963 1.44451L13.1823 7.69751L14.9757 6.81239L11.8897 0.559392L10.0963 1.44451ZM13.9356 8.24461L20.8356 9.24461L21.1224 7.26529L14.2224 6.26529L13.9356 8.24461ZM20.2815 7.53838L15.2815 12.4054L16.6765 13.8385L21.6765 8.97153L20.2815 7.53838ZM14.9934 13.291L16.1724 20.164L18.1436 19.8259L16.9646 12.9529L14.9934 13.291ZM17.6242 19.1103L11.4662 15.8653L10.5338 17.6346L16.6918 20.8796L17.6242 19.1103Z" ></path>
</symbol>

<symbol id="icon-filters" viewBox="0 0 21 18">
<path d="M6 4C6 5.10457 5.10457 6 4 6V8C6.20914 8 8 6.20914 8 4H6ZM4 6C2.89543 6 2 5.10457 2 4H0C0 6.20914 1.79086 8 4 8V6ZM2 4C2 2.89543 2.89543 2 4 2V0C1.79086 0 0 1.79086 0 4H2ZM4 2C5.10457 2 6 2.89543 6 4H8C8 1.79086 6.20914 0 4 0V2Z"></path>
<path d="M15 14C15 15.1046 15.8954 16 17 16V18C14.7909 18 13 16.2091 13 14H15ZM17 16C18.1046 16 19 15.1046 19 14H21C21 16.2091 19.2091 18 17 18V16ZM19 14C19 12.8954 18.1046 12 17 12V10C19.2091 10 21 11.7909 21 14H19ZM17 12C15.8954 12 15 12.8954 15 14H13C13 11.7909 14.7909 10 17 10V12Z"></path>
<line x1="11" y1="4" x2="20" y2="4" stroke="#8B929A" stroke-width="2" stroke-linecap="round"/>
<line x1="1" y1="-1" x2="10" y2="-1" transform="matrix(-1 0 0 1 11 15)" stroke="#8B929A" stroke-width="2" stroke-linecap="round"/>
</symbol>

<symbol id="icon-facebook" viewBox="0 0 13 20">
<path d="M1 8V7C0.447715 7 0 7.44772 0 8H1ZM1 12H0C0 12.5523 0.447715 13 1 13L1 12ZM4 12H5C5 11.4477 4.55228 11 4 11V12ZM4 19H3C3 19.5523 3.44772 20 4 20V19ZM8 19V20C8.55228 20 9 19.5523 9 19H8ZM8 12V11C7.44772 11 7 11.4477 7 12H8ZM11 12V13C11.4589 13 11.8589 12.6877 11.9701 12.2425L11 12ZM12 8L12.9701 8.24254C13.0448 7.94379 12.9777 7.6273 12.7882 7.38459C12.5987 7.14187 12.3079 7 12 7V8ZM8 8H7C7 8.55228 7.44772 9 8 9V8ZM9 5V6V5ZM12 5V6C12.5523 6 13 5.55228 13 5H12ZM12 1H13C13 0.447715 12.5523 0 12 0V1ZM4 6H3H4ZM4 8V9C4.55228 9 5 8.55228 5 8H4ZM0 8V12H2V8H0ZM1 13H4V11H1V13ZM3 12V19H5V12H3ZM4 20H8V18H4V20ZM9 19V12H7V19H9ZM8 13H11V11H8V13ZM11.9701 12.2425L12.9701 8.24254L11.0299 7.75746L10.0299 11.7575L11.9701 12.2425ZM12 7H8V9H12V7ZM9 8V6H7V8H9ZM9 6L7.58579 4.58579C7.21071 4.96086 7 5.46957 7 6H9ZM9 6V4C8.46957 4 7.96086 4.21071 7.58579 4.58579L9 6ZM9 6H12V4H9V6ZM13 5V1H11V5H13ZM12 0H9V2H12V0ZM9 0C7.4087 0 5.88258 0.632141 4.75736 1.75736L6.17157 3.17157C6.92172 2.42143 7.93913 2 9 2V0ZM4.75736 1.75736C3.63214 2.88258 3 4.4087 3 6H5C5 4.93913 5.42143 3.92172 6.17157 3.17157L4.75736 1.75736ZM3 6V8H5V6H3ZM4 7H1V9H4V7Z"></path>
</symbol>

<symbol id="icon-instagram" viewBox="0 0 18 18" >
<path d="M5 2H13V0H5V2ZM13 2C14.6569 2 16 3.34315 16 5H18C18 2.23858 15.7614 0 13 0V2ZM16 5V13H18V5H16ZM16 13C16 14.6569 14.6569 16 13 16V18C15.7614 18 18 15.7614 18 13H16ZM13 16H5V18H13V16ZM5 16C3.34315 16 2 14.6569 2 13H0C0 15.7614 2.23858 18 5 18V16ZM2 13V5H0V13H2ZM2 5C2 3.34315 3.34315 2 5 2V0C2.23858 0 0 2.23858 0 5H2ZM11 9C11 10.1046 10.1046 11 9 11V13C11.2091 13 13 11.2091 13 9H11ZM9 11C7.89543 11 7 10.1046 7 9H5C5 11.2091 6.79086 13 9 13V11ZM7 9C7 7.89543 7.89543 7 9 7V5C6.79086 5 5 6.79086 5 9H7ZM9 7C10.1046 7 11 7.89543 11 9H13C13 6.79086 11.2091 5 9 5V7Z"></path>
</symbol>

<symbol id="icon-youtube" viewBox="0 0 20 16" >
<path d="M8 5L8.5145 4.14251C8.20556 3.95715 7.82081 3.95229 7.5073 4.1298C7.19379 4.30731 7 4.63973 7 5H8ZM13 8L13.5145 8.85749C13.8157 8.67677 14 8.35126 14 8C14 7.64874 13.8157 7.32323 13.5145 7.14251L13 8ZM8 11H7C7 11.3603 7.19379 11.6927 7.5073 11.8702C7.82081 12.0477 8.20556 12.0429 8.5145 11.8575L8 11ZM5 2H15V0H5V2ZM15 2C16.6569 2 18 3.34315 18 5H20C20 2.23858 17.7614 0 15 0V2ZM18 5V11H20V5H18ZM18 11C18 12.6569 16.6569 14 15 14V16C17.7614 16 20 13.7614 20 11H18ZM15 14H5V16H15V14ZM5 14C3.34315 14 2 12.6569 2 11H0C0 13.7614 2.23858 16 5 16V14ZM2 11V5H0V11H2ZM2 5C2 3.34315 3.34315 2 5 2V0C2.23858 0 0 2.23858 0 5H2ZM7.4855 5.85749L12.4855 8.85749L13.5145 7.14251L8.5145 4.14251L7.4855 5.85749ZM12.4855 7.14251L7.4855 10.1425L8.5145 11.8575L13.5145 8.85749L12.4855 7.14251ZM9 11V5H7V11H9Z"></path>
</symbol>

<symbol id="icon-spotify" viewBox="0 0 20 20" >
<path d="M5.49236 9.11133C5.01653 9.39169 4.85807 10.0047 5.13843 10.4805C5.41879 10.9564 6.03181 11.1148 6.50764 10.8345L5.49236 9.11133ZM12.9 11.2999C13.3418 11.6313 13.9686 11.5417 14.3 11.0999C14.6314 10.6581 14.5418 10.0313 14.1 9.6999L12.9 11.2999ZM6.4453 12.1681C5.98577 12.4745 5.8616 13.0953 6.16795 13.5549C6.4743 14.0144 7.09517 14.1386 7.5547 13.8322L6.4453 12.1681ZM11.1679 14.0549C11.4743 14.5144 12.0952 14.6386 12.5547 14.3322C13.0142 14.0259 13.1384 13.405 12.8321 12.9455L11.1679 14.0549ZM4.55279 6.10577C4.05881 6.35276 3.85858 6.95343 4.10557 7.44741C4.35256 7.94139 4.95324 8.14161 5.44721 7.89462L4.55279 6.10577ZM14.47 8.3482C14.9383 8.64091 15.5553 8.49853 15.848 8.0302C16.1407 7.56186 15.9983 6.94491 15.53 6.6522L14.47 8.3482ZM18 10C18 14.4183 14.4183 18 10 18V20C15.5228 20 20 15.5228 20 10H18ZM10 18C5.58172 18 2 14.4183 2 10H0C0 15.5228 4.47715 20 10 20V18ZM2 10C2 5.58172 5.58172 2 10 2V0C4.47715 0 0 4.47715 0 10H2ZM10 2C14.4183 2 18 5.58172 18 10H20C20 4.47715 15.5228 0 10 0V2ZM6.50764 10.8345C8.60374 9.59945 11.1675 10.0005 12.9 11.2999L14.1 9.6999C11.8325 7.9993 8.39626 7.40035 5.49236 9.11133L6.50764 10.8345ZM7.5547 13.8322C8.10798 13.4634 8.88635 13.2615 9.62098 13.3104C10.3576 13.3596 10.8932 13.6427 11.1679 14.0549L12.8321 12.9455C12.1068 11.8576 10.8924 11.3908 9.75402 11.3149C8.61365 11.2389 7.39202 11.537 6.4453 12.1681L7.5547 13.8322ZM5.44721 7.89462C7.25765 6.98941 10.8651 6.09515 14.47 8.3482L15.53 6.6522C11.1349 3.90525 6.74235 5.01099 4.55279 6.10577L5.44721 7.89462Z"></path>
</symbol>

<symbol id="icon-soundcloud" viewBox="0 0 20 12" >
<path d="M15 5L14.0194 5.19612C14.1129 5.66354 14.5233 6 15 6V5ZM10 11H9C9 11.5523 9.44771 12 10 12V11ZM10 1V0C9.44771 0 9 0.447715 9 1L10 1ZM8 2C8 1.44772 7.55228 1 7 1C6.44772 1 6 1.44772 6 2H8ZM6 11C6 11.5523 6.44772 12 7 12C7.55228 12 8 11.5523 8 11H6ZM3 11C3 11.5523 3.44772 12 4 12C4.55228 12 5 11.5523 5 11H3ZM5 4C5 3.44772 4.55228 3 4 3C3.44772 3 3 3.44772 3 4H5ZM0 10C0 10.5523 0.447715 11 1 11C1.55228 11 2 10.5523 2 10H0ZM2 8C2 7.44772 1.55228 7 1 7C0.447715 7 0 7.44772 0 8H2ZM15 6H16V4H15V6ZM16 6C16.4008 6 16.9163 6.19627 17.3384 6.58681C17.7496 6.9672 18 7.46391 18 8H20C20 6.81009 19.4404 5.8068 18.6966 5.11869C17.9637 4.44073 16.9792 4 16 4V6ZM18 8C18 9.07154 16.9815 10 16 10V12C18.0185 12 20 10.2425 20 8H18ZM16 10H10V12H16V10ZM11 11V1H9V11H11ZM10 2C11.3327 2 12.2062 2.33062 12.7916 2.82589C13.3812 3.32483 13.7987 4.09268 14.0194 5.19612L15.9806 4.80388C15.7013 3.40732 15.1188 2.17517 14.0834 1.29911C13.0438 0.419382 11.6673 0 10 0V2ZM6 2V11H8V2H6ZM5 11V4H3V11H5ZM2 10V8H0V10H2Z"></path>
</symbol>

<symbol id="icon-close" viewBox="0 0 14 14" width='14' height='14'>
<path d="M13.7071 1.70711C14.0976 1.31658 14.0976 0.683417 13.7071 0.292893C13.3166 -0.0976311 12.6834 -0.0976311 12.2929 0.292893L13.7071 1.70711ZM0.292893 12.2929C-0.0976311 12.6834 -0.0976311 13.3166 0.292893 13.7071C0.683417 14.0976 1.31658 14.0976 1.70711 13.7071L0.292893 12.2929ZM1.70711 0.292893C1.31658 -0.0976311 0.683417 -0.0976311 0.292893 0.292893C-0.0976311 0.683417 -0.0976311 1.31658 0.292893 1.70711L1.70711 0.292893ZM12.2929 13.7071C12.6834 14.0976 13.3166 14.0976 13.7071 13.7071C14.0976 13.3166 14.0976 12.6834 13.7071 12.2929L12.2929 13.7071ZM12.2929 0.292893L0.292893 12.2929L1.70711 13.7071L13.7071 1.70711L12.2929 0.292893ZM0.292893 1.70711L12.2929 13.7071L13.7071 12.2929L1.70711 0.292893L0.292893 1.70711Z"></path>
</symbol>

<symbol id="icon-calendar-x" viewBox="0 0 18 20" >
<path d="M14 1C14 0.447715 13.5523 0 13 0C12.4477 0 12 0.447715 12 1H14ZM12 5C12 5.55228 12.4477 6 13 6C13.5523 6 14 5.55228 14 5H12ZM6 1C6 0.447715 5.55228 0 5 0C4.44772 0 4 0.447715 4 1H6ZM4 5C4 5.55228 4.44772 6 5 6C5.55228 6 6 5.55228 6 5H4ZM1 8C0.447715 8 0 8.44772 0 9C0 9.55229 0.447715 10 1 10V8ZM17 10C17.5523 10 18 9.55229 18 9C18 8.44772 17.5523 8 17 8V10ZM7 13C6.44772 13 6 13.4477 6 14C6 14.5523 6.44772 15 7 15V13ZM11 15C11.5523 15 12 14.5523 12 14C12 13.4477 11.5523 13 11 13V15ZM10 12C10 11.4477 9.55229 11 9 11C8.44772 11 8 11.4477 8 12H10ZM8 16C8 16.5523 8.44772 17 9 17C9.55229 17 10 16.5523 10 16H8ZM3 4H15V2H3V4ZM15 4C15.5523 4 16 4.44772 16 5H18C18 3.34315 16.6569 2 15 2V4ZM16 5V17H18V5H16ZM16 17C16 17.5523 15.5523 18 15 18V20C16.6569 20 18 18.6569 18 17H16ZM15 18H3V20H15V18ZM3 18C2.44772 18 2 17.5523 2 17H0C0 18.6569 1.34315 20 3 20V18ZM2 17V5H0V17H2ZM2 5C2 4.44772 2.44772 4 3 4V2C1.34315 2 0 3.34315 0 5H2ZM12 1V5H14V1H12ZM4 1V5H6V1H4ZM1 10H17V8H1V10ZM7 15H11V13H7V15ZM8 12V16H10V12H8Z" fill="#8B929A"></path>
</symbol>



<symbol id="icon-calenda" viewBox="0 0 20 20">
<path d="M10 1.3l2.388 6.722h6.412l-5.232 3.948 1.871 6.928-5.439-4.154-5.438 4.154 1.87-6.928-5.233-3.948h6.412l2.389-6.722z"></path>
</symbol>
</defs>
</svg>



